<svg width="282" height="40" viewBox="0 0 282 40" fill="none" xmlns="http://www.w3.org/2000/svg">
<g clip-path="url(#clip0_2_447)">
<g clip-path="url(#clip1_2_447)">
<path d="M129.999 -0.00976562H4.99998C2.23857 -0.00976562 0 2.2288 0 4.99021V34.9901C0 37.7515 2.23857 39.99 4.99998 39.99H129.999C132.761 39.99 134.999 37.7515 134.999 34.9901V4.99021C134.999 2.2288 132.761 -0.00976562 129.999 -0.00976562Z" fill="black"/>
<path d="M129.999 0.79003C131.113 0.791317 132.18 1.23426 132.968 2.02167C133.755 2.80909 134.198 3.87668 134.199 4.99021V34.9901C134.198 36.1036 133.755 37.1712 132.968 37.9586C132.18 38.746 131.113 39.1889 129.999 39.1902H4.99998C3.88643 39.189 2.81887 38.746 2.03149 37.9586C1.24411 37.1712 0.801227 36.1036 0.799996 34.9901V4.99021C0.801208 3.87666 1.24409 2.80906 2.03147 2.02164C2.81885 1.23423 3.88643 0.791296 4.99998 0.79003H129.999ZM129.999 -0.00976562H4.99998C3.67509 -0.00588755 2.40558 0.522139 1.46874 1.45898C0.531905 2.39582 0.00387808 3.66533 0 4.99021L0 34.9901C0.00387808 36.3149 0.531905 37.5845 1.46874 38.5213C2.40558 39.4581 3.67509 39.9862 4.99998 39.99H129.999C131.324 39.9862 132.594 39.4581 133.531 38.5213C134.467 37.5845 134.995 36.3149 134.999 34.9901V4.99021C134.995 3.66533 134.467 2.39582 133.531 1.45898C132.594 0.522139 131.324 -0.00588755 129.999 -0.00976562Z" fill="#1D1D1D"/>
<path d="M47.4182 10.2336C47.4364 10.6005 47.3797 10.9673 47.2516 11.3116C47.1235 11.656 46.9267 11.9706 46.673 12.2364C46.3888 12.5312 46.0456 12.7626 45.6658 12.9156C45.286 13.0686 44.8781 13.1396 44.469 13.1241C44.0572 13.1278 43.6488 13.0492 43.2679 12.8928C42.8869 12.7364 42.5411 12.5054 42.2507 12.2135C41.9603 11.9215 41.7312 11.5744 41.5768 11.1927C41.4225 10.8109 41.346 10.4021 41.3519 9.99036C41.346 9.57859 41.4225 9.16981 41.5769 8.78803C41.7313 8.40625 41.9604 8.05917 42.2508 7.76718C42.5412 7.47519 42.887 7.24418 43.2679 7.08772C43.6488 6.93126 44.0572 6.8525 44.469 6.85607C44.8923 6.85479 45.3115 6.94039 45.7005 7.10757C46.0617 7.25401 46.3833 7.48371 46.6389 7.77797L46.1116 8.30577C45.9106 8.06922 45.6579 7.88201 45.3731 7.75857C45.0883 7.63514 44.779 7.57879 44.469 7.59387C44.1569 7.59226 43.8477 7.65364 43.5599 7.77435C43.2721 7.89506 43.0116 8.07261 42.7941 8.29637C42.5765 8.52013 42.4064 8.7855 42.2938 9.07657C42.1812 9.36765 42.1286 9.67845 42.139 9.99036C42.1315 10.4576 42.263 10.9164 42.5167 11.3088C42.7704 11.7012 43.1349 12.0094 43.564 12.1943C43.9931 12.3793 44.4674 12.4327 44.9269 12.3477C45.3863 12.2627 45.8102 12.0432 46.1448 11.7169C46.4526 11.3852 46.6311 10.9539 46.6477 10.5016H44.469V9.78086H47.3762C47.4037 9.9302 47.4178 10.0817 47.4182 10.2336Z" fill="white" stroke="white" stroke-width="0.2" stroke-miterlimit="10"/>
<path d="M52.0275 7.72753H49.2952V9.62982H51.759V10.3506H49.2952V12.2529H52.0275V12.9902H48.5247V6.99023H52.0275V7.72753Z" fill="white" stroke="white" stroke-width="0.2" stroke-miterlimit="10"/>
<path d="M55.2783 12.9902H54.5068V7.72753H52.8311V6.99023H56.9541V7.72753H55.2783V12.9902Z" fill="white" stroke="white" stroke-width="0.2" stroke-miterlimit="10"/>
<path d="M59.9377 12.9902V6.99023H60.7082V12.9902H59.9377Z" fill="white" stroke="white" stroke-width="0.2" stroke-miterlimit="10"/>
<path d="M64.1281 12.9902H63.3566V7.72753H61.6809V6.99023H65.8039V7.72753H64.1281V12.9902Z" fill="white" stroke="white" stroke-width="0.2" stroke-miterlimit="10"/>
<path d="M73.6089 12.2148C73.0249 12.7971 72.2339 13.124 71.4092 13.124C70.5846 13.124 69.7935 12.7971 69.2095 12.2148C68.9206 11.9222 68.6935 11.5745 68.5417 11.1923C68.3898 10.8101 68.3164 10.4014 68.3257 9.99024C68.3164 9.57913 68.3898 9.17034 68.5417 8.78817C68.6935 8.40601 68.9206 8.05828 69.2095 7.76565C69.4982 7.47692 69.841 7.24795 70.2182 7.09186C70.5955 6.93576 70.9998 6.8556 71.4081 6.85596C71.8164 6.85632 72.2205 6.9372 72.5975 7.09397C72.9745 7.25073 73.3169 7.48031 73.605 7.76955C73.8941 8.06141 74.1217 8.40836 74.2742 8.78983C74.4267 9.1713 74.501 9.57951 74.4927 9.99024C74.5018 10.4013 74.4282 10.81 74.2764 11.1922C74.1246 11.5743 73.8976 11.9221 73.6089 12.2148ZM69.7788 11.7124C70.2114 12.1442 70.7976 12.3867 71.4087 12.3867C72.0199 12.3867 72.6061 12.1442 73.0386 11.7124C73.2604 11.4854 73.4339 11.2157 73.5485 10.9197C73.6631 10.6237 73.7166 10.3075 73.7056 9.99024C73.7166 9.673 73.6631 9.35683 73.5485 9.06082C73.4339 8.76482 73.2604 8.49513 73.0386 8.26805C72.6061 7.83626 72.0199 7.59374 71.4087 7.59374C70.7976 7.59374 70.2114 7.83626 69.7788 8.26805C69.5573 8.49531 69.3842 8.76505 69.2697 9.06103C69.1552 9.35701 69.1019 9.67309 69.1128 9.99024C69.1019 10.3074 69.1552 10.6235 69.2697 10.9195C69.3842 11.2154 69.5573 11.4852 69.7788 11.7124Z" fill="white" stroke="white" stroke-width="0.2" stroke-miterlimit="10"/>
<path d="M75.5747 12.9902V6.99023H76.5132L79.4292 11.6577H79.4624L79.4292 10.5014V6.99023H80.2007V12.9902H79.396L76.3452 8.09663H76.312L76.3452 9.25292V12.9902H75.5747Z" fill="white" stroke="white" stroke-width="0.2" stroke-miterlimit="10"/>
<path d="M68.1355 21.7417C67.295 21.7449 66.4743 21.997 65.777 22.4663C65.0797 22.9356 64.537 23.6009 64.2176 24.3784C63.8982 25.1558 63.8162 26.0105 63.9822 26.8345C64.1481 27.6584 64.5544 28.4148 65.1499 29.008C65.7454 29.6012 66.5032 30.0046 67.3278 30.1674C68.1524 30.3302 69.0068 30.245 69.783 29.9227C70.5592 29.6003 71.2225 29.0551 71.6891 28.356C72.1558 27.6569 72.4048 26.8353 72.4048 25.9948C72.413 25.4326 72.3081 24.8745 72.0963 24.3537C71.8845 23.8329 71.57 23.36 71.1717 22.9632C70.7734 22.5664 70.2993 22.2538 69.7777 22.0439C69.2561 21.8341 68.6976 21.7313 68.1355 21.7417ZM68.1355 28.5724C67.6179 28.6093 67.1011 28.4896 66.6525 28.2287C66.204 27.9678 65.8443 27.5779 65.6204 27.1097C65.3965 26.6416 65.3188 26.1169 65.3973 25.6039C65.4758 25.0909 65.7069 24.6135 66.0605 24.2337C66.4142 23.8539 66.874 23.5894 67.3801 23.4746C67.8861 23.3599 68.4151 23.4001 68.898 23.5901C69.3808 23.7801 69.7953 24.1111 70.0875 24.54C70.3796 24.9689 70.5359 25.4758 70.5359 25.9948C70.5516 26.3226 70.5016 26.6503 70.3887 26.9585C70.2759 27.2667 70.1025 27.5492 69.8788 27.7894C69.6552 28.0296 69.3857 28.2226 69.0863 28.3571C68.7869 28.4916 68.4636 28.5648 68.1355 28.5724ZM58.8221 21.7417C57.9816 21.7448 57.1609 21.997 56.4636 22.4662C55.7663 22.9355 55.2236 23.6009 54.9042 24.3783C54.5847 25.1558 54.5028 26.0104 54.6687 26.8344C54.8346 27.6584 55.241 28.4147 55.8364 29.0079C56.4319 29.6011 57.1897 30.0046 58.0143 30.1674C58.8389 30.3302 59.6933 30.2451 60.4695 29.9227C61.2457 29.6003 61.909 29.0551 62.3757 28.356C62.8423 27.6569 63.0913 26.8353 63.0913 25.9948C63.0996 25.4326 62.9947 24.8745 62.7828 24.3537C62.571 23.8329 62.2566 23.36 61.8583 22.9632C61.46 22.5664 60.9859 22.2538 60.4643 22.0439C59.9427 21.8341 59.3843 21.7313 58.8221 21.7417ZM58.8221 28.5724C58.3045 28.6093 57.7878 28.4896 57.3392 28.2287C56.8906 27.9678 56.5309 27.5779 56.3071 27.1097C56.0832 26.6416 56.0054 26.1169 56.0839 25.6039C56.1624 25.0909 56.3935 24.6135 56.7472 24.2337C57.1008 23.8539 57.5606 23.5894 58.0667 23.4746C58.5728 23.3599 59.1017 23.4001 59.5846 23.5901C60.0675 23.7801 60.482 24.1111 60.7741 24.54C61.0663 24.9689 61.2225 25.4758 61.2225 25.9948C61.2382 26.3226 61.1882 26.6503 61.0754 26.9585C60.9625 27.2667 60.7892 27.5492 60.5655 27.7894C60.3418 28.0296 60.0724 28.2226 59.7729 28.3571C59.4735 28.4916 59.1503 28.5648 58.8221 28.5724ZM47.7434 23.0467V24.851H52.0611C51.9988 25.6973 51.6525 26.4977 51.0783 27.1225C50.6456 27.5636 50.1253 27.909 49.5509 28.1365C48.9764 28.3641 48.3607 28.4686 47.7434 28.4435C46.4814 28.4265 45.2768 27.9131 44.3904 27.0146C43.504 26.1162 43.0071 24.9048 43.0071 23.6427C43.0071 22.3805 43.504 21.1692 44.3904 20.2707C45.2768 19.3722 46.4814 18.8589 47.7434 18.8418C48.9556 18.8259 50.1251 19.2891 50.9978 20.1306L52.2705 18.8579C51.675 18.2684 50.9679 17.8037 50.1905 17.4911C49.4131 17.1785 48.5812 17.0243 47.7434 17.0374C46.8679 17.0246 45.9986 17.1861 45.186 17.5123C44.3735 17.8385 43.6339 18.323 43.0102 18.9377C42.3866 19.5523 41.8914 20.2847 41.5533 21.0925C41.2153 21.9002 41.0413 22.7671 41.0413 23.6427C41.0413 24.5183 41.2153 25.3851 41.5533 26.1929C41.8914 27.0006 42.3866 27.733 43.0102 28.3477C43.6339 28.9623 44.3735 29.4468 45.186 29.773C45.9986 30.0992 46.8679 30.2607 47.7434 30.2479C48.5988 30.2834 49.4521 30.1366 50.2464 29.8172C51.0408 29.4977 51.7582 29.013 52.351 28.3952C53.4034 27.2465 53.9643 25.7315 53.9138 24.1744C53.9179 23.7962 53.8855 23.4186 53.817 23.0467H47.7434ZM93.0515 24.4482C92.7959 23.6778 92.3093 23.0048 91.6579 22.5206C91.0065 22.0364 90.2218 21.7644 89.4105 21.7417C88.864 21.7451 88.3239 21.8592 87.8228 22.0773C87.3218 22.2953 86.8701 22.6127 86.4951 23.0102C86.1202 23.4078 85.8297 23.8772 85.6413 24.3902C85.453 24.9032 85.3706 25.449 85.3991 25.9948C85.3868 26.5539 85.4873 27.1099 85.6947 27.6293C85.902 28.1488 86.2119 28.6211 86.6059 29.0181C86.9999 29.4151 87.4699 29.7286 87.9877 29.9399C88.5056 30.1512 89.0607 30.256 89.62 30.2479C90.3206 30.2518 91.0113 30.0816 91.6299 29.7526C92.2485 29.4236 92.7757 28.9461 93.1642 28.363L91.7143 27.3964C91.4971 27.7572 91.1898 28.0552 90.8227 28.2614C90.4555 28.4676 90.0411 28.5748 89.62 28.5724C89.1867 28.589 88.7584 28.475 88.3907 28.2452C88.023 28.0154 87.7328 27.6804 87.5578 27.2836L93.2449 24.9316L93.0515 24.4482ZM87.2518 25.866C87.2318 25.5564 87.2737 25.246 87.3751 24.9528C87.4765 24.6596 87.6353 24.3896 87.8423 24.1586C88.0494 23.9276 88.3004 23.7402 88.5807 23.6073C88.861 23.4745 89.165 23.3989 89.4749 23.385C89.7976 23.3637 90.1194 23.438 90.4001 23.5984C90.6809 23.7588 90.9082 23.9984 91.0538 24.2872L87.2518 25.866ZM82.628 29.9901H84.4968V17.4886H82.628V29.9901ZM79.567 22.6922H79.5026C79.2185 22.3835 78.8718 22.139 78.4856 21.9751C78.0994 21.8112 77.6827 21.7316 77.2633 21.7417C76.1666 21.7883 75.1303 22.2568 74.3708 23.0494C73.6113 23.8419 73.1873 24.8971 73.1873 25.9948C73.1873 27.0925 73.6113 28.1477 74.3708 28.9403C75.1303 29.7328 76.1666 30.2013 77.2633 30.2479C77.6843 30.2591 78.1028 30.1785 78.4895 30.0115C78.8763 29.8446 79.222 29.5954 79.5026 29.2813H79.567V29.8935C79.567 31.5207 78.6971 32.3906 77.2954 32.3906C76.8283 32.3794 76.3751 32.2294 75.9935 31.9597C75.6119 31.69 75.3193 31.3129 75.1529 30.8762L73.5257 31.5529C73.8323 32.2996 74.355 32.9377 75.0266 33.3854C75.6982 33.8332 76.4883 34.0702 77.2954 34.0661C79.4865 34.0661 81.3392 32.7773 81.3392 29.6357V21.9994H79.567V22.6922ZM77.4244 28.5724C76.7785 28.5177 76.1767 28.2224 75.7381 27.745C75.2995 27.2677 75.0561 26.6431 75.0561 25.9948C75.0561 25.3466 75.2995 24.7219 75.7381 24.2446C76.1767 23.7672 76.7785 23.4719 77.4244 23.4172C77.7458 23.4329 78.0607 23.5131 78.3504 23.6531C78.6401 23.7931 78.8986 23.9899 79.1106 24.232C79.3226 24.474 79.4836 24.7563 79.5842 25.0619C79.6848 25.3675 79.7228 25.6902 79.6959 26.0109C79.7211 26.3295 79.6817 26.6499 79.5801 26.953C79.4785 27.256 79.3169 27.5355 79.1048 27.7746C78.8928 28.0137 78.6347 28.2077 78.3459 28.3447C78.0572 28.4818 77.7438 28.5593 77.4244 28.5724ZM101.805 17.4888H97.3342V29.9901H99.1998V25.2538H101.805C102.333 25.2827 102.861 25.2037 103.357 25.0217C103.854 24.8396 104.307 24.5583 104.691 24.195C105.075 23.8316 105.381 23.3938 105.59 22.9083C105.799 22.4228 105.906 21.8998 105.906 21.3713C105.906 20.8427 105.799 20.3197 105.59 19.8342C105.381 19.3487 105.075 18.9109 104.691 18.5476C104.307 18.1842 103.854 17.9029 103.357 17.7209C102.861 17.5388 102.333 17.4599 101.805 17.4888ZM101.854 23.514H99.1998V19.2287H101.854C102.139 19.2228 102.422 19.2738 102.687 19.3789C102.952 19.4839 103.194 19.6408 103.398 19.8403C103.601 20.0399 103.763 20.2781 103.874 20.541C103.984 20.8038 104.041 21.0862 104.041 21.3713C104.041 21.6565 103.984 21.9388 103.874 22.2017C103.763 22.4646 103.601 22.7028 103.398 22.9023C103.194 23.1019 102.952 23.2588 102.687 23.3638C102.422 23.4688 102.139 23.5199 101.854 23.514ZM113.385 21.7187C112.704 21.6789 112.026 21.8388 111.435 22.1788C110.844 22.5188 110.364 23.0241 110.056 23.6326L111.712 24.3242C111.877 24.0221 112.125 23.7746 112.428 23.6117C112.731 23.4489 113.075 23.3779 113.417 23.4074C113.891 23.3612 114.363 23.5045 114.731 23.806C115.099 24.1075 115.332 24.5425 115.379 25.0157V25.1444C114.78 24.826 114.112 24.6603 113.433 24.6619C111.648 24.6619 109.831 25.643 109.831 27.4764C109.848 27.8629 109.943 28.2418 110.11 28.5909C110.276 28.94 110.511 29.252 110.801 29.5085C111.09 29.765 111.428 29.9608 111.795 30.0841C112.161 30.2075 112.549 30.256 112.935 30.2266C113.405 30.2543 113.873 30.1555 114.292 29.9405C114.711 29.7255 115.064 29.4023 115.315 29.0043H115.379V29.9693H117.181V25.1766C117.181 22.9571 115.524 21.7187 113.385 21.7187ZM113.16 28.57C112.549 28.57 111.696 28.2645 111.696 27.5085C111.696 26.5437 112.758 26.1737 113.675 26.1737C114.27 26.1578 114.859 26.3022 115.379 26.5919C115.311 27.1341 115.048 27.6332 114.64 27.9968C114.232 28.3605 113.706 28.5641 113.16 28.57ZM123.743 21.9921L121.604 27.412H121.539L119.32 21.9921H117.309L120.639 29.5672L118.741 33.781H120.687L125.817 21.9921H123.743ZM106.936 29.9901H108.801V17.4888H106.936V29.9901Z" fill="white"/>
<path d="M10.4352 7.52817C10.1073 7.92024 9.9417 8.42286 9.97238 8.93306V31.0491C9.94161 31.5593 10.1072 32.0619 10.4352 32.4539L10.5092 32.526L22.8981 20.1372V19.8449L10.5092 7.45557L10.4352 7.52817Z" fill="url(#paint0_linear_2_447)"/>
<path d="M27.0276 24.2689L22.8982 20.1375V19.8452L27.0286 15.7148L27.1217 15.7679L32.0144 18.548C33.412 19.342 33.412 20.6412 32.0144 21.4357L27.1217 24.2158L27.0276 24.2689Z" fill="url(#paint1_linear_2_447)"/>
<path d="M27.1217 24.2151L22.8982 19.9912L10.4353 32.4541C10.7201 32.7052 11.0837 32.8488 11.4633 32.86C11.8428 32.8713 12.2143 32.7494 12.5134 32.5154L27.1217 24.2151Z" fill="url(#paint2_linear_2_447)"/>
<path d="M27.1217 15.7672L12.5134 7.46689C12.2143 7.23298 11.8428 7.11108 11.4633 7.12229C11.0837 7.13351 10.7201 7.27713 10.4353 7.52829L22.8982 19.9912L27.1217 15.7672Z" fill="url(#paint3_linear_2_447)"/>
<path opacity="0.2" d="M27.0286 24.1221L12.5134 32.3693C12.2258 32.5883 11.8748 32.7077 11.5134 32.7096C11.152 32.7116 10.7997 32.5959 10.5098 32.38L10.4353 32.4545L10.5093 32.5266L10.5098 32.5261C10.7997 32.7421 11.1519 32.8579 11.5134 32.8559C11.8748 32.854 12.2259 32.7345 12.5134 32.5154L27.1217 24.2151L27.0286 24.1221Z" fill="#1D1D1D"/>
<path opacity="0.12" d="M10.4352 32.3087C10.1073 31.9166 9.94171 31.414 9.97236 30.9038V31.0499C9.94169 31.5601 10.1073 32.0627 10.4352 32.4548L10.5097 32.3803L10.4352 32.3087Z" fill="#1D1D1D"/>
<path opacity="0.12" d="M32.0144 21.289L27.0286 24.1222L27.1217 24.2152L32.0144 21.4351C32.3022 21.3102 32.5513 21.1104 32.7357 20.8565C32.9201 20.6027 33.033 20.304 33.0627 19.9917C33.0009 20.2745 32.8739 20.5391 32.6919 20.7643C32.51 20.9895 32.278 21.1691 32.0144 21.289Z" fill="#1D1D1D"/>
<path opacity="0.25" d="M12.5133 7.61358L32.0144 18.6935C32.2781 18.8134 32.5101 18.9931 32.6921 19.2184C32.8741 19.4437 33.001 19.7084 33.0627 19.9913C33.0332 19.6789 32.9203 19.38 32.7359 19.1261C32.5515 18.8721 32.3024 18.6723 32.0144 18.5474L12.5133 7.46748C11.1157 6.67338 9.97241 7.33298 9.97241 8.93377V9.07987C9.97241 7.47918 11.1157 6.81958 12.5133 7.61358Z" fill="white"/>
</g>
<g clip-path="url(#clip2_2_447)">
<path d="M271.249 -0.00963562H157.756C157.342 -0.00963562 156.933 -0.00963562 156.521 -0.00763562C156.175 -0.00563562 155.833 0.000174375 155.484 0.00506437C154.727 0.0129662 153.971 0.0720406 153.223 0.181774C152.477 0.293897 151.754 0.50528 151.079 0.808774C150.405 1.11484 149.788 1.51253 149.253 1.98743C148.714 2.461 148.266 3.00838 147.924 3.60852C147.581 4.20747 147.343 4.8493 147.219 5.51184C147.093 6.17355 147.025 6.84289 147.016 7.51384C147.006 7.82044 147.005 8.12806 146.999 8.4347V31.549C147.005 31.8595 147.006 32.1603 147.016 32.4709C147.025 33.1418 147.093 33.8111 147.219 34.4728C147.343 35.1357 147.58 35.7779 147.924 36.3771C148.265 36.9753 148.714 37.5204 149.253 37.9914C149.786 38.4684 150.403 38.8663 151.079 39.1701C151.754 39.4744 152.477 39.687 153.223 39.8009C153.971 39.9097 154.727 39.9688 155.484 39.9777C155.833 39.9845 156.175 39.9884 156.521 39.9884C156.933 39.9904 157.342 39.9904 157.756 39.9904H271.249C271.654 39.9904 272.066 39.9904 272.472 39.9884C272.815 39.9884 273.168 39.9845 273.512 39.9777C274.268 39.9693 275.022 39.9102 275.768 39.8009C276.517 39.6862 277.242 39.4736 277.921 39.1701C278.596 38.8662 279.212 38.4682 279.745 37.9914C280.282 37.5186 280.732 36.9738 281.078 36.3771C281.419 35.7775 281.654 35.1353 281.777 34.4728C281.902 33.811 281.972 33.1418 281.986 32.4709C281.99 32.1603 281.99 31.8595 281.99 31.549C281.999 31.1857 281.999 30.8244 281.999 30.4552V9.52649C281.999 9.16028 281.999 8.797 281.99 8.4347C281.99 8.12806 281.99 7.82044 281.986 7.5138C281.972 6.84279 281.902 6.1736 281.777 5.5118C281.654 4.84965 281.419 4.20787 281.078 3.60848C280.382 2.40556 279.278 1.42639 277.921 0.808684C277.242 0.505932 276.517 0.294605 275.768 0.181684C275.022 0.0714672 274.268 0.0123721 273.512 0.00492437C273.168 4.43747e-05 272.815 -0.00581563 272.472 -0.00776562C272.066 -0.00976562 271.654 -0.00976562 271.249 -0.00976562V-0.00963562Z" fill="#1D1D1D"/>
<path d="M156.429 39.1183C156.085 39.1183 155.749 39.1144 155.407 39.1076C154.7 39.0995 153.994 39.045 153.295 38.9445C152.644 38.8452 152.013 38.6605 151.423 38.3965C150.838 38.1347 150.305 37.7913 149.844 37.3797C149.376 36.9729 148.986 36.501 148.691 35.9829C148.392 35.4614 148.185 34.9024 148.077 34.3253C147.961 33.7053 147.898 33.0784 147.889 32.45C147.882 32.239 147.872 31.5367 147.872 31.5367V8.43127C147.872 8.43127 147.882 7.73972 147.889 7.53655C147.898 6.9091 147.96 6.28314 148.076 5.66409C148.184 5.08548 148.391 4.52487 148.69 4.00164C148.985 3.48384 149.372 3.01166 149.837 2.6034C150.302 2.19125 150.837 1.84616 151.422 1.58071C152.011 1.31754 152.641 1.13414 153.291 1.03666C153.991 0.935203 154.7 0.880352 155.41 0.872564L156.43 0.860352H272.569L273.601 0.873054C274.305 0.880455 275.007 0.934817 275.701 1.03568C276.358 1.13438 276.994 1.31906 277.59 1.58364C278.762 2.1186 279.717 2.96495 280.319 4.00408C280.613 4.52369 280.817 5.07974 280.924 5.65334C281.041 6.27747 281.107 6.90835 281.12 7.54095C281.123 7.82421 281.123 8.12847 281.123 8.43127C281.132 8.80635 281.132 9.16336 281.132 9.52329V30.4563C281.132 30.8197 281.132 31.1743 281.123 31.5318C281.123 31.857 281.123 32.155 281.119 32.4617C281.106 33.083 281.041 33.7026 280.926 34.3155C280.82 34.8967 280.615 35.4601 280.316 35.9859C280.018 36.4984 279.63 36.9662 279.168 37.3719C278.706 37.7858 278.172 38.1311 277.586 38.3946C276.993 38.6606 276.357 38.846 275.701 38.9445C275.003 39.0455 274.297 39.1 273.589 39.1076C273.258 39.1144 272.911 39.1183 272.575 39.1183L271.35 39.1203L156.429 39.1183Z" fill="black"/>
<path d="M179.797 20.2911C179.807 19.4564 180.029 18.638 180.441 17.9121C180.853 17.1861 181.442 16.5762 182.153 16.139C181.701 15.4938 181.105 14.9629 180.413 14.5883C179.72 14.2138 178.949 14.0059 178.162 13.9813C176.483 13.8051 174.855 14.9861 173.999 14.9861C173.127 14.9861 171.809 13.9988 170.391 14.028C169.473 14.0577 168.579 14.3245 167.795 14.8026C167.011 15.2806 166.364 15.9536 165.918 16.7559C163.984 20.1043 165.426 25.0253 167.279 27.732C168.206 29.0573 169.289 30.5378 170.706 30.4853C172.094 30.4277 172.612 29.6008 174.286 29.6008C175.945 29.6008 176.431 30.4853 177.877 30.4519C179.365 30.4277 180.303 29.1206 181.197 27.7827C181.863 26.8384 182.376 25.7946 182.716 24.6902C181.851 24.3245 181.113 23.7123 180.594 22.93C180.075 22.1477 179.798 21.2299 179.797 20.2911Z" fill="white"/>
<path d="M177.065 12.2011C177.877 11.2269 178.276 9.97468 178.18 8.71045C176.94 8.84067 175.794 9.43323 174.972 10.3701C174.57 10.8277 174.262 11.3602 174.066 11.9369C173.869 12.5137 173.789 13.1235 173.828 13.7314C174.448 13.7378 175.062 13.6034 175.623 13.3383C176.183 13.0732 176.676 12.6844 177.065 12.2011Z" fill="white"/>
<path d="M197.33 27.1299H192.597L191.46 30.4864H189.455L193.938 18.0684H196.021L200.505 30.4864H198.466L197.33 27.1299ZM193.087 25.5811H196.839L194.989 20.1338H194.937L193.087 25.5811Z" fill="white"/>
<path d="M210.187 25.9602C210.187 28.7737 208.682 30.5813 206.409 30.5813C205.833 30.6114 205.261 30.4788 204.757 30.1986C204.253 29.9185 203.839 29.5021 203.56 28.9973H203.517V33.4816H201.659V21.4328H203.458V22.9387H203.492C203.783 22.4362 204.205 22.022 204.712 21.7402C205.22 21.4583 205.795 21.3194 206.375 21.3381C208.673 21.3381 210.187 23.1545 210.187 25.9602ZM208.277 25.9602C208.277 24.1272 207.33 22.9221 205.885 22.9221C204.465 22.9221 203.51 24.1526 203.51 25.9602C203.51 27.7844 204.465 29.0061 205.885 29.0061C207.33 29.0061 208.277 27.8098 208.277 25.9602Z" fill="white"/>
<path d="M220.152 25.9602C220.152 28.7736 218.646 30.5813 216.374 30.5813C215.798 30.6114 215.226 30.4788 214.722 30.1986C214.218 29.9185 213.803 29.5021 213.525 28.9973H213.482V33.4816H211.624V21.4328H213.423V22.9387H213.457C213.748 22.4362 214.17 22.022 214.677 21.7402C215.185 21.4583 215.759 21.3194 216.34 21.3381C218.638 21.3381 220.152 23.1545 220.152 25.9602ZM218.242 25.9602C218.242 24.1272 217.295 22.9221 215.85 22.9221C214.43 22.9221 213.475 24.1525 213.475 25.9602C213.475 27.7844 214.43 29.0061 215.85 29.0061C217.295 29.0061 218.242 27.8098 218.242 25.9602H218.242Z" fill="white"/>
<path d="M226.738 27.0264C226.876 28.2579 228.072 29.0664 229.707 29.0664C231.273 29.0664 232.4 28.2578 232.4 27.1475C232.4 26.1836 231.721 25.6065 230.111 25.2109L228.502 24.8232C226.222 24.2725 225.163 23.2061 225.163 21.4756C225.163 19.333 227.03 17.8613 229.682 17.8613C232.306 17.8613 234.104 19.333 234.165 21.4756H232.289C232.177 20.2363 231.152 19.4883 229.655 19.4883C228.158 19.4883 227.134 20.2451 227.134 21.3467C227.134 22.2246 227.788 22.7412 229.389 23.1367L230.757 23.4726C233.305 24.0752 234.363 25.0986 234.363 26.915C234.363 29.2383 232.513 30.6933 229.569 30.6933C226.815 30.6933 224.956 29.2724 224.836 27.0263L226.738 27.0264Z" fill="white"/>
<path d="M238.374 19.29V21.4326H240.096V22.9043H238.374V27.8955C238.374 28.6709 238.719 29.0322 239.475 29.0322C239.68 29.0287 239.884 29.0143 240.087 28.9892V30.4521C239.747 30.5157 239.401 30.5445 239.055 30.5381C237.222 30.5381 236.507 29.8496 236.507 28.0937V22.9043H235.19V21.4326H236.507V19.29H238.374Z" fill="white"/>
<path d="M241.093 25.96C241.093 23.1113 242.77 21.3213 245.387 21.3213C248.012 21.3213 249.682 23.1113 249.682 25.96C249.682 28.8164 248.02 30.5986 245.387 30.5986C242.754 30.5986 241.093 28.8164 241.093 25.96ZM247.788 25.96C247.788 24.0059 246.892 22.8525 245.387 22.8525C243.881 22.8525 242.986 24.0146 242.986 25.96C242.986 27.9219 243.881 29.0664 245.387 29.0664C246.892 29.0664 247.788 27.9219 247.788 25.96H247.788Z" fill="white"/>
<path d="M251.214 21.4327H252.986V22.9737H253.029C253.149 22.4925 253.431 22.0671 253.828 21.7692C254.224 21.4714 254.711 21.3191 255.207 21.338C255.421 21.3373 255.635 21.3605 255.844 21.4073V23.1456C255.573 23.063 255.291 23.0251 255.009 23.0333C254.739 23.0224 254.47 23.07 254.22 23.1729C253.97 23.2757 253.745 23.4315 253.561 23.6294C253.377 23.8273 253.238 24.0626 253.154 24.3193C253.069 24.576 253.042 24.8479 253.072 25.1163V30.4864H251.214L251.214 21.4327Z" fill="white"/>
<path d="M264.412 27.8271C264.162 29.4707 262.561 30.5986 260.514 30.5986C257.88 30.5986 256.245 28.834 256.245 26.0029C256.245 23.1631 257.889 21.3213 260.435 21.3213C262.94 21.3213 264.516 23.042 264.516 25.7871V26.4238H258.121V26.5361C258.091 26.8693 258.133 27.205 258.243 27.5208C258.354 27.8367 258.53 28.1255 258.76 28.368C258.99 28.6106 259.27 28.8013 259.579 28.9276C259.889 29.0539 260.222 29.1129 260.557 29.1006C260.996 29.1417 261.436 29.04 261.813 28.8106C262.19 28.5811 262.482 28.2362 262.647 27.8271L264.412 27.8271ZM258.13 25.125H262.656C262.673 24.8254 262.627 24.5256 262.523 24.2444C262.418 23.9632 262.256 23.7066 262.048 23.4909C261.839 23.2751 261.588 23.1048 261.311 22.9906C261.034 22.8763 260.735 22.8207 260.435 22.8271C260.133 22.8253 259.833 22.8835 259.553 22.9982C259.273 23.113 259.018 23.282 258.804 23.4957C258.589 23.7093 258.42 23.9633 258.304 24.2429C258.188 24.5226 258.129 24.8224 258.13 25.125V25.125Z" fill="white"/>
<path d="M192.854 8.72113C193.243 8.69317 193.634 8.75203 193.999 8.89346C194.363 9.03489 194.691 9.25537 194.959 9.539C195.228 9.82262 195.43 10.1623 195.552 10.5336C195.673 10.9049 195.711 11.2985 195.661 11.686C195.661 13.5922 194.631 14.688 192.854 14.688H190.699V8.72113H192.854ZM191.625 13.8441H192.75C193.029 13.8608 193.307 13.8151 193.566 13.7105C193.824 13.6059 194.056 13.4449 194.245 13.2394C194.433 13.0338 194.574 12.7888 194.656 12.5222C194.737 12.2556 194.759 11.9741 194.718 11.6981C194.756 11.4233 194.732 11.1435 194.649 10.8789C194.566 10.6142 194.425 10.3712 194.237 10.1673C194.049 9.96333 193.818 9.80352 193.561 9.69929C193.304 9.59505 193.027 9.54897 192.75 9.56434H191.625V13.8441Z" fill="white"/>
<path d="M196.708 12.4345C196.68 12.1386 196.714 11.84 196.808 11.558C196.902 11.2759 197.053 11.0166 197.253 10.7966C197.453 10.5766 197.697 10.4008 197.969 10.2805C198.241 10.1603 198.535 10.0981 198.832 10.0981C199.129 10.0981 199.423 10.1603 199.695 10.2805C199.967 10.4008 200.21 10.5766 200.41 10.7966C200.61 11.0166 200.762 11.2759 200.856 11.558C200.95 11.84 200.984 12.1386 200.955 12.4345C200.984 12.7307 200.951 13.0297 200.857 13.3122C200.764 13.5948 200.612 13.8546 200.412 14.075C200.212 14.2954 199.968 14.4716 199.696 14.5921C199.424 14.7126 199.129 14.7749 198.832 14.7749C198.534 14.7749 198.24 14.7126 197.968 14.5921C197.696 14.4716 197.452 14.2954 197.252 14.075C197.052 13.8546 196.9 13.5948 196.806 13.3122C196.713 13.0297 196.679 12.7307 196.708 12.4345ZM200.041 12.4345C200.041 11.4585 199.603 10.8877 198.833 10.8877C198.061 10.8877 197.626 11.4585 197.626 12.4345C197.626 13.4184 198.061 13.9848 198.833 13.9848C199.603 13.9848 200.041 13.4145 200.041 12.4345H200.041Z" fill="white"/>
<path d="M206.601 14.688H205.679L204.748 11.3716H204.678L203.751 14.688H202.838L201.597 10.1851H202.498L203.305 13.6211H203.371L204.297 10.1851H205.15L206.076 13.6211H206.146L206.949 10.1851H207.837L206.601 14.688Z" fill="white"/>
<path d="M208.881 10.1851H209.737V10.9004H209.803C209.916 10.6435 210.106 10.4281 210.347 10.2843C210.588 10.1405 210.867 10.0755 211.147 10.0982C211.366 10.0817 211.586 10.1147 211.791 10.1948C211.995 10.2749 212.179 10.4 212.329 10.5609C212.478 10.7217 212.59 10.9142 212.655 11.124C212.72 11.3338 212.738 11.5556 212.705 11.773V14.688H211.817V11.9961C211.817 11.2725 211.502 10.9126 210.845 10.9126C210.696 10.9057 210.548 10.931 210.41 10.9869C210.272 11.0427 210.147 11.1277 210.045 11.2361C209.943 11.3445 209.866 11.4737 209.818 11.6148C209.771 11.7559 209.754 11.9057 209.77 12.0538V14.688H208.881L208.881 10.1851Z" fill="white"/>
<path d="M214.121 8.42725H215.01V14.688H214.121V8.42725Z" fill="white"/>
<path d="M216.245 12.4346C216.217 12.1387 216.251 11.8401 216.345 11.558C216.439 11.2759 216.59 11.0166 216.79 10.7966C216.99 10.5766 217.234 10.4008 217.506 10.2806C217.778 10.1603 218.072 10.0981 218.369 10.0981C218.666 10.0981 218.96 10.1603 219.232 10.2806C219.504 10.4008 219.748 10.5766 219.948 10.7966C220.148 11.0166 220.3 11.2759 220.393 11.558C220.487 11.8401 220.521 12.1387 220.493 12.4346C220.522 12.7308 220.488 13.0298 220.395 13.3124C220.301 13.5949 220.149 13.8547 219.949 14.0751C219.749 14.2955 219.505 14.4716 219.233 14.5922C218.961 14.7127 218.667 14.775 218.369 14.775C218.072 14.775 217.777 14.7127 217.505 14.5922C217.233 14.4716 216.989 14.2955 216.789 14.0751C216.589 13.8547 216.437 13.5949 216.344 13.3124C216.25 13.0298 216.217 12.7308 216.245 12.4346ZM219.578 12.4346C219.578 11.4585 219.14 10.8877 218.37 10.8877C217.598 10.8877 217.163 11.4585 217.163 12.4346C217.163 13.4185 217.598 13.9849 218.37 13.9849C219.14 13.9849 219.578 13.4146 219.578 12.4346H219.578Z" fill="white"/>
<path d="M221.429 13.4145C221.429 12.604 222.032 12.1367 223.103 12.0703L224.323 12V11.6113C224.323 11.1357 224.009 10.8672 223.401 10.8672C222.905 10.8672 222.561 11.0493 222.463 11.3677H221.602C221.693 10.5942 222.421 10.0981 223.442 10.0981C224.571 10.0981 225.208 10.6601 225.208 11.6113V14.688H224.352V14.0552H224.282C224.139 14.2822 223.939 14.4672 223.701 14.5914C223.464 14.7156 223.197 14.7746 222.93 14.7622C222.741 14.7818 222.549 14.7617 222.369 14.703C222.188 14.6443 222.021 14.5483 221.88 14.4214C221.739 14.2944 221.625 14.1392 221.548 13.9658C221.47 13.7924 221.429 13.6046 221.429 13.4145ZM224.323 13.0298V12.6533L223.224 12.7236C222.603 12.7651 222.322 12.9761 222.322 13.373C222.322 13.7783 222.674 14.0141 223.157 14.0141C223.299 14.0285 223.442 14.0142 223.578 13.9721C223.714 13.93 223.84 13.861 223.949 13.7691C224.058 13.6773 224.147 13.5645 224.211 13.4375C224.275 13.3105 224.313 13.1718 224.323 13.0298Z" fill="white"/>
<path d="M226.376 12.4346C226.376 11.0117 227.107 10.1104 228.245 10.1104C228.526 10.0974 228.806 10.1648 229.05 10.3047C229.295 10.4446 229.494 10.6512 229.626 10.9004H229.692V8.42725H230.581V14.688H229.729V13.9766H229.659C229.517 14.224 229.311 14.4281 229.062 14.5666C228.812 14.705 228.53 14.7727 228.245 14.7622C227.099 14.7622 226.376 13.8609 226.376 12.4346ZM227.294 12.4346C227.294 13.3897 227.744 13.9644 228.497 13.9644C229.246 13.9644 229.709 13.3814 229.709 12.4385C229.709 11.5 229.241 10.9087 228.497 10.9087C227.749 10.9087 227.294 11.4873 227.294 12.4346H227.294Z" fill="white"/>
<path d="M234.258 12.4345C234.229 12.1386 234.263 11.84 234.357 11.558C234.451 11.2759 234.603 11.0166 234.803 10.7966C235.002 10.5766 235.246 10.4008 235.518 10.2805C235.79 10.1603 236.084 10.0981 236.381 10.0981C236.678 10.0981 236.972 10.1603 237.244 10.2805C237.516 10.4008 237.76 10.5766 237.96 10.7966C238.16 11.0166 238.311 11.2759 238.405 11.558C238.499 11.84 238.533 12.1386 238.505 12.4345C238.534 12.7307 238.5 13.0297 238.406 13.3122C238.313 13.5948 238.161 13.8546 237.961 14.075C237.761 14.2954 237.517 14.4716 237.245 14.5921C236.973 14.7126 236.679 14.7749 236.381 14.7749C236.084 14.7749 235.789 14.7126 235.517 14.5921C235.245 14.4716 235.001 14.2954 234.801 14.075C234.601 13.8546 234.449 13.5948 234.356 13.3122C234.262 13.0297 234.229 12.7307 234.258 12.4345ZM237.591 12.4345C237.591 11.4585 237.152 10.8877 236.383 10.8877C235.61 10.8877 235.176 11.4585 235.176 12.4345C235.176 13.4184 235.61 13.9848 236.383 13.9848C237.152 13.9848 237.591 13.4145 237.591 12.4345Z" fill="white"/>
<path d="M239.697 10.1851H240.553V10.9004H240.619C240.732 10.6435 240.922 10.4281 241.163 10.2843C241.403 10.1405 241.683 10.0755 241.963 10.0982C242.182 10.0817 242.402 10.1147 242.606 10.1948C242.811 10.2749 242.995 10.4 243.145 10.5609C243.294 10.7217 243.406 10.9142 243.471 11.124C243.536 11.3338 243.554 11.5556 243.521 11.773V14.688H242.633V11.9961C242.633 11.2725 242.318 10.9126 241.661 10.9126C241.512 10.9057 241.364 10.931 241.226 10.9869C241.088 11.0427 240.963 11.1277 240.861 11.2361C240.759 11.3445 240.682 11.4737 240.634 11.6148C240.587 11.7559 240.57 11.9057 240.586 12.0538V14.688H239.697V10.1851Z" fill="white"/>
<path d="M248.543 9.06396V10.2056H249.518V10.9541H248.543V13.2695C248.543 13.7412 248.737 13.9478 249.18 13.9478C249.293 13.9474 249.406 13.9405 249.518 13.9272V14.6675C249.359 14.696 249.197 14.7112 249.035 14.7129C248.047 14.7129 247.653 14.3652 247.653 13.4971V10.9541H246.938V10.2055H247.653V9.06396H248.543Z" fill="white"/>
<path d="M250.732 8.42725H251.613V10.9087H251.683C251.802 10.6494 251.997 10.4328 252.243 10.2884C252.488 10.1441 252.772 10.079 253.056 10.1021C253.274 10.0902 253.492 10.1266 253.695 10.2086C253.897 10.2907 254.079 10.4163 254.227 10.5767C254.375 10.737 254.486 10.9281 254.551 11.1362C254.617 11.3443 254.636 11.5644 254.607 11.7808V14.688H253.718V12C253.718 11.2808 253.383 10.9165 252.755 10.9165C252.602 10.904 252.448 10.925 252.305 10.978C252.161 11.0311 252.03 11.1149 251.922 11.2236C251.814 11.3324 251.732 11.4634 251.679 11.6075C251.627 11.7517 251.607 11.9054 251.621 12.0581V14.688H250.732L250.732 8.42725Z" fill="white"/>
<path d="M259.789 13.4722C259.668 13.8838 259.407 14.2398 259.05 14.4779C258.693 14.7161 258.264 14.8212 257.838 14.775C257.541 14.7828 257.246 14.726 256.974 14.6085C256.701 14.4909 256.458 14.3155 256.26 14.0944C256.062 13.8732 255.914 13.6117 255.828 13.3278C255.741 13.044 255.717 12.7447 255.758 12.4508C255.718 12.1559 255.743 11.8559 255.829 11.5713C255.916 11.2866 256.062 11.0238 256.259 10.8008C256.456 10.5777 256.698 10.3995 256.97 10.2783C257.242 10.1571 257.536 10.0957 257.834 10.0982C259.087 10.0982 259.843 10.9542 259.843 12.3682V12.6783H256.663V12.7281C256.649 12.8934 256.67 13.0597 256.724 13.2164C256.778 13.3732 256.864 13.5169 256.977 13.6383C257.09 13.7598 257.227 13.8563 257.38 13.9217C257.532 13.9871 257.696 14.0199 257.862 14.0181C258.075 14.0436 258.29 14.0054 258.481 13.9081C258.672 13.8109 258.829 13.6592 258.933 13.4722L259.789 13.4722ZM256.663 12.0211H258.937C258.949 11.8699 258.928 11.7181 258.877 11.5754C258.826 11.4327 258.746 11.3022 258.641 11.1924C258.537 11.0825 258.411 10.9957 258.271 10.9375C258.131 10.8794 257.98 10.8511 257.829 10.8546C257.675 10.8526 257.523 10.8815 257.38 10.9394C257.238 10.9974 257.109 11.0832 257 11.192C256.891 11.3007 256.806 11.43 256.748 11.5724C256.69 11.7148 256.661 11.8674 256.663 12.0211H256.663Z" fill="white"/>
</g>
</g>
<defs>
<linearGradient id="paint0_linear_2_447" x1="21.7995" y1="8.69987" x2="5.01714" y2="25.4822" gradientUnits="userSpaceOnUse">
<stop stop-color="#00A0FF"/>
<stop offset="0.00657" stop-color="#00A1FF"/>
<stop offset="0.2601" stop-color="#00BEFF"/>
<stop offset="0.5122" stop-color="#00D2FF"/>
<stop offset="0.7604" stop-color="#00DFFF"/>
<stop offset="1" stop-color="#00E3FF"/>
</linearGradient>
<linearGradient id="paint1_linear_2_447" x1="33.8341" y1="19.9919" x2="9.63734" y2="19.9919" gradientUnits="userSpaceOnUse">
<stop stop-color="#FFE000"/>
<stop offset="0.4087" stop-color="#FFBD00"/>
<stop offset="0.7754" stop-color="#FFA500"/>
<stop offset="1" stop-color="#FF9C00"/>
</linearGradient>
<linearGradient id="paint2_linear_2_447" x1="24.8268" y1="22.2863" x2="2.06861" y2="45.0445" gradientUnits="userSpaceOnUse">
<stop stop-color="#FF3A44"/>
<stop offset="1" stop-color="#C31162"/>
</linearGradient>
<linearGradient id="paint3_linear_2_447" x1="7.29725" y1="0.166506" x2="17.4597" y2="10.329" gradientUnits="userSpaceOnUse">
<stop stop-color="#32A071"/>
<stop offset="0.0685" stop-color="#2DA771"/>
<stop offset="0.4762" stop-color="#15CF74"/>
<stop offset="0.8009" stop-color="#06E775"/>
<stop offset="1" stop-color="#00F076"/>
</linearGradient>
<clipPath id="clip0_2_447">
<rect width="281.999" height="40" fill="white" transform="translate(0 -0.00976562)"/>
</clipPath>
<clipPath id="clip1_2_447">
<rect width="134.999" height="40" fill="white" transform="translate(0 -0.00976562)"/>
</clipPath>
<clipPath id="clip2_2_447">
<rect width="135" height="40" fill="white" transform="translate(146.999 -0.00976562)"/>
</clipPath>
</defs>
</svg>
