<svg width="27" height="28" viewBox="0 0 27 28" fill="none" xmlns="http://www.w3.org/2000/svg">
<path d="M7.875 19.9206L12.8396 19.9037L23.6756 9.17121C24.1009 8.74596 24.3349 8.18121 24.3349 7.58046C24.3349 6.97971 24.1009 6.41496 23.6756 5.98971L21.8914 4.20546C21.0409 3.35496 19.557 3.35946 18.7133 4.20208L7.875 14.9368V19.9206ZM20.3006 5.79621L22.0883 7.57708L20.2916 9.35683L18.5074 7.57371L20.3006 5.79621ZM10.125 15.8751L16.9087 9.15546L18.693 10.9397L11.9104 17.6571L10.125 17.6627V15.8751Z" fill="black"/>
<path d="M5.625 24.4058H21.375C22.6159 24.4058 23.625 23.3966 23.625 22.1558V12.4043L21.375 14.6543V22.1558H9.17775C9.1485 22.1558 9.11813 22.167 9.08888 22.167C9.05175 22.167 9.01463 22.1569 8.97638 22.1558H5.625V6.40576H13.3279L15.5779 4.15576H5.625C4.38412 4.15576 3.375 5.16489 3.375 6.40576V22.1558C3.375 23.3966 4.38412 24.4058 5.625 24.4058Z" fill="black"/>
</svg>
